#!OML:ASF H:\LiuWeirdWalks\Patient Classification 1\Patient 1\Session 1\male.ASF
:FULLY-SPECIFIED
:DEGREES
334
root 2.77812 17.8515 4.65768 1.73271 -13.7273 4.44646
lowerback 2.70652 -3.66184 -3.99382
upperback -1.12087 -4.92357 10.6816
thorax -1.39295 -2.4414 14.0368
lowerneck -12.542 5.52061 11.7272
upperneck 26.155 9.13702 -15.0243
head 11.8915 3.59195 -6.38567
rclavicle -4.8901e-014 -1.27222e-014
rhumerus -17.6153 -50.9778 -37.45
rradius 72.7966
rwrist -28.7005
rhand -41.1166 -8.33163
rfingers 7.12502
rthumb -14.044 -37.8371
lclavicle -4.8901e-014 -1.27222e-014
lhumerus -25.045 -36.6879 24.8087
lradius 112.847
lwrist 13.7523
lhand 6.72444 -2.17341
lfingers 7.12502
lthumb 32.0134 25.0299
rfemur -14.5797 5.50586 6.95397
rtibia 37.3079
rfoot -14.9023 -18.0624
rtoes -8.11415
lfemur -2.50522 7.1833 -25.8319
ltibia 25.2204
lfoot -14.3299 29.3461
ltoes -6.4586
335
root 2.82342 17.8616 4.60131 2.08609 -13.8378 4.84113
lowerback 3.21724 -3.54667 -3.98967
upperback -0.909372 -4.77195 10.7041
thorax -1.49659 -2.36658 14.0955
lowerneck -12.7012 5.53566 11.7365
upperneck 25.5299 9.19119 -15.4459
head 11.7171 3.57414 -6.51178
rclavicle -3.97569e-014 -1.30403e-013
rhumerus -17.7006 -50.2228 -37.5918
rradius 70.7888
rwrist -27.3429
rhand -39.9749 -8.67032
rfingers 7.12502
rthumb -12.9436 -38.2489
lclavicle -3.97569e-014 -1.30403e-013
lhumerus -24.1644 -38.4915 23.8543
lradius 111.966
lwrist 13.2991
lhand 7.16518 -2.07442
lfingers 7.12502
lthumb 32.4329 25.0437
rfemur -15.3973 5.38977 6.33513
rtibia 37.3927
rfoot -14.6769 -17.9372
rtoes -8.05222
lfemur -3.2428 7.63394 -26.3515
ltibia 25.1766
lfoot -13.9862 28.822
ltoes -6.7666
336
root 2.86685 17.8713 4.54383 2.45414 -13.9021 5.22487
lowerback 3.71465 -3.43288 -3.98733
upperback -0.692946 -4.62248 10.7182
thorax -1.58751 -2.29361 14.1422
lowerneck -12.8662 5.53237 11.684
upperneck 24.9132 9.21089 -15.7993
head 11.5365 3.54277 -6.60438
rclavicle -7.15625e-015 7.31528e-014
rhumerus -17.8337 -49.3645 -37.73
rradius 68.9254
rwrist -26.0647
rhand -38.6698 -8.99545
rfingers 7.12502
rthumb -11.6853 -38.6496
lclavicle -7.15625e-015 7.31528e-014
lhumerus -23.1732 -40.2609 22.8338
lradius 111.066
lwrist 12.9009
lhand 7.81096 -2.01094
lfingers 7.12502
lthumb 33.0473 24.9793
rfemur -16.2079 5.23736 5.73363
rtibia 37.4671
rfoot -14.4514 -17.817
rtoes -7.98975
lfemur -4.00518 8.06127 -26.8627
ltibia 25.1515
lfoot -13.6603 28.2649
ltoes -7.05734
337
root 2.90782 17.8809 4.48486 2.83868 -13.9222 5.58589
lowerback 4.20025 -3.32583 -3.98812
upperback -0.472209 -4.48259 10.7332
thorax -1.66414 -2.22648 14.1895
lowerneck -13.0146 5.51752 11.5963
upperneck 24.3065 9.20796 -16.1039
head 11.3501 3.50471 -6.67486
rclavicle -2.78299e-014 -2.22639e-014
rhumerus -17.9805 -48.379 -37.8916
rradius 67.2007
rwrist -24.9187
rhand -37.1952 -9.29934
rfingers 7.12502
rthumb -10.263 -39.029
lclavicle -2.78299e-014 -2.22639e-014
lhumerus -22.1001 -41.9836 21.7541
lradius 110.164
lwrist 12.6005
lhand 8.69581 -1.93974
lfingers 7.12502
lthumb 33.8883 24.8687
rfemur -17.0092 5.06452 5.16679
rtibia 37.528
rfoot -14.2218 -17.7134
rtoes -7.93198
lfemur -4.79243 8.44098 -27.3547
ltibia 25.1433
lfoot -13.3607 27.7018
ltoes -7.29689
338
root 2.94621 17.8905 4.42502 3.23027 -13.888 5.94147
lowerback 4.67585 -3.22403 -4.00384
upperback -0.254021 -4.3505 10.7448
thorax -1.73473 -2.1634 14.2402
lowerneck -13.1277 5.49237 11.5112
upperneck 23.655 9.18103 -16.3978
head 11.1374 3.4608 -6.74266
rclavicle -1.66979e-014 -4.45278e-014
rhumerus -18.1713 -47.2287 -38.0444
rradius 65.6163
rwrist -23.9529
rhand -35.6742 -9.52539
rfingers 7.12502
rthumb -8.79543 -39.3221
lclavicle -1.66979e-014 -4.45278e-014
lhumerus -20.9289 -43.6774 20.6229
lradius 109.246
lwrist 12.1805
lhand 9.66988 -1.8783
lfingers 7.12502
lthumb 34.8132 24.7212
rfemur -17.7889 4.84574 4.61581
rtibia 37.577
rfoot -13.9968 -17.613
rtoes -7.87788
lfemur -5.59139 8.77333 -27.8459
ltibia 25.1449
lfoot -13.0754 27.1375
ltoes -7.49779
339
root 2.98142 17.9 4.36416 3.62549 -13.7984 6.29323
lowerback 5.14477 -3.13111 -4.03899
upperback -0.0318063 -4.23204 10.746
thorax -1.79278 -2.10795 14.2892
lowerneck -13.238 5.45905 11.4077
upperneck 23.0376 9.13722 -16.6508
head 10.9332 3.4125 -6.79528
rclavicle -9.54166e-015 3.18055e-015
rhumerus -18.3891 -45.9012 -38.2216
rradius 64.1702
rwrist -23.1887
rhand -34.1855 -9.63907
rfingers 7.12502
rthumb -7.3586 -39.4911
lclavicle -9.54166e-015 3.18055e-015
lhumerus -19.6634 -45.327 19.4173
lradius 108.32
lwrist 11.6123
lhand 10.666 -1.82921
lfingers 7.12502
lthumb 35.7577 24.5465
rfemur -18.5418 4.59938 4.08333
rtibia 37.6141
rfoot -13.7728 -17.5339
rtoes -7.82503
lfemur -6.39613 9.0618 -28.3354
ltibia 25.1527
lfoot -12.8031 26.5748
ltoes -7.66869
340
root 3.01295 17.9093 4.30233 4.02298 -13.6598 6.64615
lowerback 5.60454 -3.04241 -4.10713
upperback 0.192715 -4.12202 10.7409
thorax -1.83882 -2.05736 14.3498
lowerneck -13.3454 5.41953 11.3112
upperneck 22.4223 9.07784 -16.8924
head 10.7285 3.36019 -6.84712
rclavicle -4.45278e-014 -2.54444e-014
rhumerus -18.6366 -44.3896 -38.4107
rradius 62.8541
rwrist -22.549
rhand -32.7095 -9.70931
rfingers 7.12502
rthumb -5.93379 -39.6062
lclavicle -4.45278e-014 -2.54444e-014
lhumerus -18.2845 -46.9215 18.1317
lradius 107.432
lwrist 11.0497
lhand 11.7282 -1.58247
lfingers 7.12502
lthumb 36.7636 24.5427
rfemur -19.2703 4.33117 3.56668
rtibia 37.6413
rfoot -13.5509 -17.4784
rtoes -7.76598
lfemur -7.20116 9.30408 -28.8276
ltibia 25.16
lfoot -12.5314 26.026
ltoes -7.82562
341
root 3.0403 17.9189 4.2398 4.43038 -13.4769 6.96118
lowerback 6.0487 -2.96143 -4.17486
upperback 0.421942 -4.02345 10.7388
thorax -1.86751 -2.01396 14.4118
lowerneck -13.4165 5.37725 11.2209
upperneck 21.7627 9.00499 -17.1235
head 10.5002 3.3071 -6.89581
rclavicle -3.97569e-014 4.77083e-014
rhumerus -18.903 -42.6927 -38.6338
rradius 61.6644
rwrist -22.0017
rhand -31.2458 -9.68809
rfingers 7.12502
rthumb -4.52045 -39.6199
lclavicle -3.97569e-014 4.77083e-014
lhumerus -16.8024 -48.4509 16.7642
lradius 106.554
lwrist 10.3718
lhand 12.7333 -1.2424
lfingers 7.12502
lthumb 37.714 24.6341
rfemur -19.9733 4.0693 3.11173
rtibia 37.6592
rfoot -13.3314 -17.4707
rtoes -7.69698
lfemur -8.00148 9.49831 -29.2787
ltibia 25.165
lfoot -12.2586 25.4989
ltoes -7.97637
342
root 3.06321 17.9285 4.17687 4.83859 -13.2619 7.23949
lowerback 6.47865 -2.88416 -4.24645
upperback 0.669264 -3.93211 10.7348
thorax -1.86658 -1.97688 14.4716
lowerneck -13.5646 5.33014 11.0956
upperneck 21.2018 8.92022 -17.2819
head 10.3172 3.24804 -6.91643
rclavicle -9.70069e-014 7.31528e-014
rhumerus -19.1468 -40.8842 -38.944
rradius 60.5933
rwrist -21.4288
rhand -29.7632 -9.58638
rfingers 7.12502
rthumb -3.0888 -39.5438
lclavicle -9.70069e-014 7.31528e-014
lhumerus -15.211 -49.8625 15.2919
lradius 105.696
lwrist 9.6949
lhand 13.8029 -0.865599
lfingers 7.12502
lthumb 38.7237 24.733
rfemur -20.6439 3.84503 2.71764
rtibia 37.6675
rfoot -13.1169 -17.5274
rtoes -7.60369
lfemur -8.78667 9.64643 -29.6873
ltibia 25.1678
lfoot -11.9757 25.0065
ltoes -8.13232
343
root 3.08174 17.9381 4.11311 5.25318 -13.0253 7.4895
lowerback 6.9032 -2.81216 -4.34068
upperback 0.920083 -3.85049 10.735
thorax -1.85395 -1.94578 14.5501
lowerneck -13.6994 5.28705 10.9662
upperneck 20.6424 8.83509 -17.4111
head 10.1321 3.1928 -6.92542
rclavicle 6.36111e-015 -4.13472e-014
rhumerus -19.3743 -38.9761 -39.3149
rradius 59.6233
rwrist -20.6996
rhand -28.1159 -9.42534
rfingers 7.12502
rthumb -1.49785 -39.3998
lclavicle 6.36111e-015 -4.13472e-014
lhumerus -13.5473 -51.144 13.7593
lradius 104.869
lwrist 9.14818
lhand 15.0276 -0.415942
lfingers 7.12502
lthumb 39.8776 24.8469
rfemur -21.2962 3.64875 2.3734
rtibia 37.6648
rfoot -12.8979 -17.6358
rtoes -7.49987
lfemur -9.56929 9.74162 -30.0633
ltibia 25.1718
lfoot -11.6792 24.5602
ltoes -8.28629
